# xmcd
#
# Track frame offsets: 
#        150
#        21136
#        50661
#
# Disc length: 939 seconds
#
# Revision: 0
# Processed by: cddbd v1.5.2PL0 Copyright (c) Steve Scherf et al.
# Submitted via: ExactAudioCopy v0.99pb5
#
DISCID=1f03a903
DTITLE=Sumerland - And All Is Always Now
DYEAR=2000
DGENRE=Darkwave
TTITLE0=Circle Dance
TTITLE1=Exalted City
TTITLE2=Morpheus (Repraise)
EXTD=
EXTT0=
EXTT1=
EXTT2=
PLAYORDER=
